<svg width="35" height="27" viewBox="0 0 35 27" fill="none" xmlns="http://www.w3.org/2000/svg">
<g clip-path="url(#clip0_30_2)">
<path d="M10.447 23.968C7.461 26.954 2.404 26.943 0.990998 22.963C0.714998 22.183 0.493996 21.382 0.330996 20.565C-0.333004 17.227 0.00799823 13.767 1.31 10.623C2.613 7.478 4.818 4.791 7.648 2.9C10.478 1.009 13.804 0 17.208 0C20.611 0 23.938 1.009 26.768 2.9C29.597 4.791 31.803 7.478 33.105 10.623C34.408 13.767 34.748 17.227 34.085 20.565C33.922 21.382 33.701 22.183 33.424 22.963C32.012 26.943 26.954 26.954 23.968 23.968L19.359 19.359C18.918 18.918 18.964 18.192 19.085 17.581C19.159 17.21 19.121 16.825 18.976 16.475C18.831 16.125 18.586 15.826 18.271 15.616C17.956 15.406 17.586 15.293 17.208 15.293C16.829 15.293 16.459 15.406 16.144 15.616C15.829 15.826 15.584 16.125 15.439 16.475C15.294 16.825 15.256 17.21 15.33 17.581C15.452 18.192 15.497 18.918 15.057 19.359L10.447 23.968Z" fill="url(#paint0_linear_30_2)"/>
</g>
<defs>
<linearGradient id="paint0_linear_30_2" x1="32.8489" y1="8.60403" x2="2.30563" y2="8.60403" gradientUnits="userSpaceOnUse">
<stop stop-color="white"/>
<stop offset="0.5104" stop-color="#00ADB5"/>
<stop offset="1" stop-color="#393E46"/>
</linearGradient>
<clipPath id="clip0_30_2">
<rect width="34.415" height="26.092" fill="white"/>
</clipPath>
</defs>
</svg>
